# xmcd
#
# Track frame offsets:
#	150
#	15560
#	32900
#	50567
#	65447
#	83799
#	103073
#	118123
#	137963
#	153048
#	172711
#	186439
#
# Disc length: 2774 seconds
#
# Revision: 1
# Processed by: cddbd v1.4PL0 Copyright (c) Steve Scherf et al.
# Submitted via: audiograbber 1.80
#
DISCID=9b0ad40c
DTITLE=Veronika Fischer and Band - (1)
DYEAR=1900
DGENRE=
TTITLE0=Und wer bist du
TTITLE1=Blues von der letzten Gelegenheit
TTITLE2=Auf der Wiese
TTITLE3=In jener Nacht
TTITLE4=Die Liebe ist gegangen
TTITLE5=H‰nschengroﬂ
TTITLE6=Klavier im Fluﬂ
TTITLE7=Zu groﬂ der Hut
TTITLE8=Daﬂ ich eine Schneeflocke w‰r
TTITLE9=Halt an
TTITLE10=Guten Tag
TTITLE11=Bonus: Der Streit
EXTD=
EXTT0=
EXTT1=
EXTT2=
EXTT3=
EXTT4=
EXTT5=
EXTT6=
EXTT7=
EXTT8=
EXTT9=
EXTT10=
EXTT11=
PLAYORDER=
